<?xml version="1.0" standalone="no"?>
<!DOCTYPE svg PUBLIC "-//W3C//DTD SVG 1.1//EN" "http://www.w3.org/Graphics/SVG/1.1/DTD/svg11.dtd" >
<svg>
<metadata>
Created by FontForge 20090914 at Fri Jan 13 00:11:31 2012
 By www-data
 
</metadata>
<defs>
<font id="StymieLight" horiz-adv-x="0" >
  <font-face 
    font-family="StymieLight"
    font-weight="400"
    font-stretch="normal"
    units-per-em="1000"
    panose-1="0 0 0 0 0 0 0 0 0 0"
    ascent="800"
    descent="-200"
    x-height="500"
    cap-height="800"
    bbox="-25 -200 1000 853"
    underline-thickness="50"
    underline-position="-55"
    unicode-range="U+0020-U+F002"
  />
<missing-glyph 
 />
    <glyph glyph-name=".notdef" 
 />
    <glyph glyph-name="glyph1" 
 />
    <glyph glyph-name="space" horiz-adv-x="250" 
 />
    <glyph glyph-name="exclam" unicode=" " horiz-adv-x="250" 
 />
    <glyph glyph-name="exclam" unicode="&#xa0;" horiz-adv-x="250" 
 />
    <glyph glyph-name="quotedbl" unicode="!" horiz-adv-x="100" 
d="M0 0v75h75v-75h-75v0zM25 150l-25 650h75l-25 -650h-25v0z" />
    <glyph glyph-name="numbersign" unicode="&#x22;" horiz-adv-x="175" 
d="M0 800h50v-200h-50v200v0zM100 800h50v-200h-50v200v0z" />
    <glyph glyph-name="dollar" unicode="#" horiz-adv-x="530" 
d="M253 631l-30 -123h135l30 123h24l-30 -123h128l-8 -24h-124l-28 -112h132l-8 -24h-132l-30 -128h-24l30 128h-134l-31 -124h-24l26 124h-123l8 24h128l22 112h-135l8 24h136l30 123h24v0zM219 484l-27 -112h134l28 112h-135v0z" />
    <glyph glyph-name="percent" unicode="$" horiz-adv-x="440" 
d="M253 755v-815h-40v815h40v0zM394 602q-19 41 -56.5 71.5t-106.5 30.5q-78 0 -129.5 -45.5t-51.5 -116.5q0 -58 32.5 -88t80.5 -54q16 -9 33 -17.5t35 -18.5q4 -3 8.5 -5.5t9.5 -4.5q46 -29 87 -66t51 -77l2 -10.5t1 -10.5q0 -68 -36 -112t-120 -44q-57 0 -92.5 19
t-55.5 42q-19 23 -25.5 41.5t-6.5 19.5l-40 -14l7.5 -23t30.5 -51t66.5 -50.5t115.5 -22.5q100 0 148 54t48 145q0 62 -44 106.5t-97 76.5l-29.5 17.5t-28.5 15.5q-1 1 -2.5 1.5t-3.5 1.5q-11 6 -21.5 11t-20.5 11q-38 19 -65 41.5t-27 61.5q0 59 43.5 92.5t96.5 33.5
q36 0 61 -14.5t41 -31.5q7 -8 12.5 -16.5t8.5 -14.5l40 15v0z" />
    <glyph glyph-name="ampersand" unicode="%" horiz-adv-x="504" 
d="M370 235q61 0 91.5 -37.5t30.5 -82.5v-1.5v-1.5q-1 -45 -31.5 -82t-90.5 -37q-63 0 -94.5 37t-31.5 83t31.5 84t94.5 38v0zM370 32q40 0 60.5 24.5t21.5 53.5v1.5v1.5q0 31 -20.5 56.5t-61.5 25.5t-62 -25.5t-21 -56.5v-1.5v-1.5q1 -29 22 -53.5t61 -24.5v0zM431 700h39
l-380 -700h-39l380 700v0zM142 683q61 0 91.5 -37.5t30.5 -82.5v-1.5v-1.5q-1 -45 -31.5 -82.5t-90.5 -37.5q-63 0 -94.5 37.5t-31.5 83.5t31.5 84t94.5 38v0zM142 480q40 0 60.5 24.5t21.5 53.5v1.5v1.5q0 31 -20.5 56.5t-61.5 25.5t-62 -25.5t-21 -56.5v-1.5v-1.5
q1 -29 22 -53.5t61 -24.5v0z" />
    <glyph glyph-name="quotesingle" unicode="&#x26;" horiz-adv-x="650" 
d="M0 250q0 107 71.5 189t178.5 86v-50q-87 -4 -143.5 -71t-56.5 -154q0 -82 60 -133.5t140 -66.5q8 -1 15 -2t14 -1q84 0 153.5 72.5t84.5 159.5q1 10 2 19t1 18q0 23 -4.5 44t-15.5 40h-75v50h200v-50h-75q9 -21 13.5 -43t4.5 -45q0 -8 -0.5 -15.5t-1.5 -15.5
q-13 -106 -96.5 -194t-188.5 -88h-15t-16 1q-100 15 -175 81.5t-75 168.5v0zM450 625h-50v125h-150q-12 -1 -21 -4.5t-15 -7.5q-6 -5 -9.5 -9t-4.5 -4q-9 -8 -13 -18.5t-4 -22.5q0 -6 0.5 -12.5t2.5 -13.5q2 -8 6 -16.5l8 -16.5l325 -575h100v-50h-125l-350 600
q-12 21 -21.5 43.5t-9.5 46.5q0 8 1.5 17t4.5 18q10 29 28.5 47t46.5 28h250v-175v0z" />
    <glyph glyph-name="parenleft" unicode="'" horiz-adv-x="75" 
d="M0 800h50v-200h-50v200v0z" />
    <glyph glyph-name="parenright" unicode="(" horiz-adv-x="175" 
d="M150 0q-16 18 -29.5 36l-26.5 35q-50 74 -72 151.5t-22 177.5t22 177.5t72 151.5l26.5 35t29.5 36q-21 -41 -37.5 -77.5t-28.5 -73.5q-17 -54 -25.5 -111.5t-8.5 -127.5q0 -74 7 -134t25 -118q12 -38 28.5 -76.5t39.5 -81.5v0z" />
    <glyph glyph-name="asterisk" unicode=")" horiz-adv-x="175" 
d="M0 0q22 42 39 80.5t28 75.5q18 56 25.5 114.5t7.5 129.5t-7.5 129.5t-25.5 114.5q-11 37 -28 75.5t-39 80.5q16 -18 29.5 -36l26.5 -35q50 -74 72 -151.5t22 -177.5t-22 -177.5t-72 -151.5l-26.5 -35t-29.5 -36v0z" />
    <glyph glyph-name="plus" unicode="*" horiz-adv-x="275" 
d="M150 315v-65h-50v64l-46 -46l-36 36l47 46h-65v50h63l-45 45l36 36l46 -46v65h50v-64l45 45l36 -36l-45 -45h64v-50h-66l47 -46l-36 -36l-45 47v0z" />
    <glyph glyph-name="comma" unicode="+" horiz-adv-x="375" 
d="M0 425h150v150h50v-150h150v-50h-150v-150h-50v150h-150v50v0z" />
    <glyph glyph-name="hyphen" unicode="," horiz-adv-x="100" 
d="M-25 -75l26 150h74l-50 -150h-50v0z" />
    <glyph glyph-name="period" unicode="-" horiz-adv-x="225" 
d="M0 400h200v-50h-200v50v0z" />
    <glyph glyph-name="slash" unicode="." horiz-adv-x="100" 
d="M0 0v75h75v-75h-75v0z" />
    <glyph glyph-name="zero" unicode="/" horiz-adv-x="325" 
d="M302 800l-250 -800h-50l245 800h55v0z" />
    <glyph glyph-name="one" unicode="0" horiz-adv-x="525" 
d="M0 400q0 19 1 39t3 40q13 120 71 220.5t175 100.5t175 -100.5t71 -220.5q2 -20 3 -40t1 -39t-1 -39t-3 -40q-13 -120 -71 -220.5t-175 -100.5t-175 100.5t-71 220.5q-2 20 -3 40t-1 39v0zM50 400q0 -19 1 -39t3 -40q10 -101 54 -186t142 -85t142 85t54 186q2 20 3 40
t1 39t-1 39t-3 40q-10 101 -54 186t-142 85t-142 -85t-54 -186q-2 -20 -3 -40t-1 -39v0z" />
    <glyph glyph-name="two" unicode="1" horiz-adv-x="325" 
d="M0 0v50h125v700h-75v50h125v-750h125v-50h-300v0z" />
    <glyph glyph-name="three" unicode="2" horiz-adv-x="525" 
d="M0 0l8 7l19 16l0.5 0.5l0.5 0.5l16.5 13t10.5 8q71 50 138.5 111.5t120.5 124.5q56 66 90.5 129.5t35.5 114.5v2.5v3.5q-1 85 -53 155t-137 69q-55 -1 -92 -29t-60 -61q-24 -34 -35 -62.5t-13 -27.5l-45 15q-2 0 9.5 33.5t40.5 74.5q29 39 76.5 72.5t118.5 34.5
q108 2 176.5 -77.5t68.5 -202.5q0 -39 -21.5 -85.5t-54.5 -94.5q-22 -31 -46.5 -61.5t-50.5 -58.5q-65 -74 -119.5 -124.5t-52.5 -50.5h300v100h50v-150h-500v0z" />
    <glyph glyph-name="four" unicode="3" horiz-adv-x="525" 
d="M0 600q20 91 88.5 145.5t161.5 54.5h2.5h3.5q91 -2 167.5 -55t76.5 -145q0 -109 -58 -157.5t-133 -49.5q-14 0 -29 2t-30 5q7 2 14.5 3l14.5 2t14.5 1.5t14.5 0.5q75 0 133.5 -48.5t58.5 -158.5q0 -92 -76.5 -145t-167.5 -55h-3.5h-2.5q-93 0 -161.5 54.5t-88.5 145.5h50
q20 -70 73.5 -110t126.5 -40t134 38.5t66 111.5v4.5v4.5q0 66 -53 117t-119 52h-6.5t-7.5 -1q-4 0 -7.5 -0.5t-6.5 -1.5v50l14 -2t14 -1q66 0 119 50.5t53 117.5v2.5v2.5v2.5v2.5q-5 73 -66 111.5t-134 38.5t-126.5 -40t-73.5 -110h-50v0z" />
    <glyph glyph-name="five" unicode="4" horiz-adv-x="525" 
d="M500 250v-50h-125v-150h75v-50h-200v50h75v150h-325v50l325 550h50v-550h125v0zM325 250v450l-265 -450h265v0z" />
    <glyph glyph-name="six" unicode="5" horiz-adv-x="525" 
d="M500 250q0 -102 -74 -176t-176 -74q-93 0 -162 54.5t-88 145.5h50q19 -70 73 -110t127 -40q82 0 141 59t59 141t-52.5 140.5t-147.5 59.5q-55 0 -97.5 -17t-77.5 -58l-50 25l50 400h375v-125h-50v75h-275l-40 -305q9 7 17.5 12.5l16.5 10.5q30 17 61 24t70 8h2h2h1h2
q110 0 176.5 -74.5t66.5 -175.5v0z" />
    <glyph glyph-name="seven" unicode="6" horiz-adv-x="525" 
d="M250 0q-161 0 -203 100.5t-45 221.5q-1 19 -1 37.5v37.5v0.5v1.5q0 20 0.5 41t2.5 42q10 120 61.5 219.5t183.5 97.5q76 -1 124.5 -32t76.5 -67q28 -38 38.5 -69l10.5 -31l-50 -1q-23 68 -75 109.5t-125 40.5q-78 -1 -120.5 -54.5t-60.5 -118.5q-12 -40 -16.5 -78
t-4.5 -63q0 -13 1 -21t2 -10q39 50 87 72.5t112 22.5q102 0 176.5 -73.5t74.5 -175.5t-74 -176t-176 -74v0zM250 49q82 0 141 59t59 141t-59 141t-141 59t-141 -59t-59 -141t59 -141t141 -59v0z" />
    <glyph glyph-name="eight" unicode="7" horiz-adv-x="525" 
d="M0 800h500v-50l-275 -700h75v-50h-200v50h75l275 700h-400v-125h-50v175v0z" />
    <glyph glyph-name="nine" unicode="8" horiz-adv-x="525" 
d="M250 0h-2.5h-3.5q-91 2 -167.5 55t-76.5 145q0 74 23.5 115t51.5 60q23 16 43 20.5t28 4.5h3h1h-0.5h-2.5q-7 0 -28 4.5t-44 20.5q-28 19 -51.5 60t-23.5 115q0 92 76.5 145t167.5 55h3.5h2.5h5.5h5.5q91 -4 166 -57t75 -143q0 -74 -23.5 -114.5t-51.5 -59.5t-51.5 -22.5
l-23.5 -3.5l23 -4t51 -23t51 -59.5t23 -113.5q0 -92 -76.5 -145t-167.5 -55h-3.5h-2.5v0zM250 375q-101 0 -150.5 -44.5t-50.5 -115.5v-4t1 -3v-4v-4q5 -73 66 -111.5t134 -38.5t134 38.5t66 111.5v6v5q1 72 -55.5 118t-144.5 46v0zM250 425h2.5h3.5q73 2 133.5 48t60.5 117
v2.5v2.5v2.5v2.5q-5 73 -66 111.5t-134 38.5t-134 -38.5t-66 -111.5v-4.5v-4.5q0 -71 60.5 -117.5t133.5 -48.5h3.5h2.5v0z" />
    <glyph glyph-name="colon" unicode="9" horiz-adv-x="525" 
d="M248 799q161 0 203 -100.5t45 -221.5q1 -19 1 -37.5v-37.5v-0.5v-1.5q0 -20 -0.5 -40.5t-2.5 -40.5q-9 -121 -60 -220t-184 -99q-76 0 -125 31t-77 68q-28 38 -38 69l-10 31l49 1q23 -68 75.5 -109.5t125.5 -40.5q78 1 120 54.5t61 117.5q11 41 15.5 78.5t4.5 62.5
q0 14 -0.5 22t-2.5 10q-39 -49 -87 -72t-112 -23q-102 0 -176 73.5t-74 175.5t73.5 176t175.5 74v0zM248 750q-82 0 -141 -59t-59 -141t59 -141t141 -59t141 59t59 141t-59 141t-141 59v0z" />
    <glyph glyph-name="semicolon" unicode=":" horiz-adv-x="100" 
d="M0 0v75h75v-75h-75v0zM0 500h75v-75h-75v75v0z" />
    <glyph glyph-name="less" unicode=";" horiz-adv-x="100" 
d="M-25 -75l26 150h74l-50 -150h-50v0zM0 500h75v-75h-75v75v0z" />
    <glyph glyph-name="equal" unicode="&#x3c;" horiz-adv-x="350" 
d="M0 250l250 250h75l-250 -250l250 -250h-75l-250 250v0z" />
    <glyph glyph-name="greater" unicode="=" horiz-adv-x="325" 
d="M0 350h300v-50h-300v50v0zM0 500h300v-50h-300v50v0z" />
    <glyph glyph-name="question" unicode="&#x3e;" horiz-adv-x="350" 
d="M324 250l-249 -250h-75l249 250l-250 250h75l250 -250v0z" />
    <glyph glyph-name="at" unicode="?" horiz-adv-x="425" 
d="M150 50h50v-50h-50v50v0zM0 600q2 81 60.5 138t139.5 57t140.5 -57t59.5 -138q0 -87 -56.5 -154.5t-143.5 -70.5v-250h-50v300l15.5 -2t14.5 -1q66 -1 118 54t52 124q0 60 -45 102.5t-105 42.5t-104 -42.5t-46 -102.5h-50v0z" />
    <glyph glyph-name="A" unicode="@" horiz-adv-x="544" 
d="M274 664q-118 0 -177.5 -70.5t-60.5 -155.5v-1.5v-1.5q-1 -87 59 -159t179 -72q6 0 12 0.5t13 0.5q42 4 80 19.5t53 33.5q1 1 2 0.5t3 -2.5q1 -1 2 -2.5t2 -3.5q1 -3 1.5 -5t-0.5 -3t-2 -2.5t-3 -2.5q-19 -20 -65 -36.5t-100 -16.5q-128 0 -192 77.5t-64 171.5v1.5v1.5
q1 93 65.5 170.5t192.5 77.5q19 0 39 -2.5t41 -9.5q55 -16 103.5 -59t67.5 -124q2 -9 3 -19.5t1 -21.5q0 -8 -0.5 -17t-1.5 -18q-6 -43 -31 -79.5t-75 -36.5q-23 0 -34.5 12.5t-15.5 26.5q-3 10 -4 19.5t-1 14.5v3.5v1.5l-4 -12.5t-17 -26.5q-13 -15 -37 -27t-64 -12
q-55 0 -81 33t-26 76v8.5t1 9.5q5 47 40.5 87t96.5 40q27 0 46.5 -9t31.5 -20q11 -8 17 -16t8 -11l9 50h19l-19 -156v-10v-10q0 -19 6 -35.5t32 -16.5q35 0 55.5 30.5t27.5 66.5l2 18t1 18q0 10 -1 18.5t-3 15.5q-26 97 -90.5 138.5t-142.5 41.5v0zM275 531q-54 0 -82.5 -34
t-32.5 -74q-1 -3 -1 -6.5v-6.5q-1 -37 20.5 -65t64.5 -28q53 1 82.5 33.5t35.5 72.5q0 4 0.5 7.5t0.5 7.5q0 37 -22 65t-66 28v0z" />
    <glyph glyph-name="B" unicode="A" horiz-adv-x="735" 
d="M0 0v50h50l280 700h-50v50h150v-50h-50l280 -700h50v-50h-150v50h50l-105 250h-300l-105 -250h50v-50h-150v0zM355 700l-127 -355h254l-127 355v0z" />
    <glyph glyph-name="C" unicode="B" horiz-adv-x="570" 
d="M0 0v50h75v700h-75v50h325q75 0 127.5 -58t64.5 -128l2 -17.5t1 -17.5v-0.5v-1.5v-1.5v-0.5q-1 -43 -23.5 -71.5t-48.5 -45.5q-28 -18 -50.5 -25.5l-22.5 -7.5l27.5 -12t60.5 -39q31 -27 58 -71t29 -108v-1.5v-0.5q0 -11 -2 -22.5t-6 -23.5q-19 -55 -72.5 -101
t-119.5 -46h-350v0zM125 400v-350h225q62 0 106.5 44.5t43.5 105.5q-1 80 -59.5 140t-140.5 60h-175v0zM125 450h175h2.5h3.5q58 1 107.5 31.5t51.5 93.5v3.5v2.5v1.5v1.5q-1 62 -39.5 114t-100.5 52h-200v-300v0z" />
    <glyph glyph-name="D" unicode="C" horiz-adv-x="730" 
d="M400 0q-164 8 -282 122t-118 278t118 281.5t282 118.5q61 1 106.5 -14.5t77.5 -34.5q36 -22 53.5 -38.5t17.5 -8.5v71h50v-200h-50v50q0 2 -18 21t-50 41q-34 24 -82 43.5t-105 19.5q-143 0 -246.5 -103.5t-103.5 -246.5t103.5 -245.5t246.5 -104.5q72 -1 122 18.5
t81 43.5q30 24 43.5 43.5l13.5 19.5l37 -37q1 -1 -15.5 -22t-50.5 -47q-35 -26 -87.5 -47.5t-123.5 -21.5h-6.5h-6.5h-3.5h-3.5v0z" />
    <glyph glyph-name="E" unicode="D" horiz-adv-x="670" 
d="M0 0v50h75v700h-75v50h250q164 0 282 -115.5t118 -279.5q0 -165 -117.5 -285t-282.5 -120h-250v0zM250 50q145 0 247.5 105t102.5 250q0 144 -105.5 244.5t-249.5 100.5h-120v-700h125v0z" />
    <glyph glyph-name="F" unicode="E" horiz-adv-x="525" 
d="M0 0v50h75v700h-75v50h500v-150h-50v100h-325v-325h150v100h50v-250h-50v100h-150v-325h325v100h50v-150h-500v0z" />
    <glyph glyph-name="G" unicode="F" horiz-adv-x="525" 
d="M225 0h-225v50h75v700h-75v50h500v-150h-50v100h-325v-325h150v100h50v-250h-50v100h-150v-325h100v-50v0z" />
    <glyph glyph-name="H" unicode="G" horiz-adv-x="730" 
d="M650 290h-300v50h355v-340h-50v140q0 51 -10.5 21t-56.5 -76q-31 -31 -82.5 -56.5t-130.5 -28.5h-6h-6q-160 0 -263.5 112t-103.5 263q0 166 106.5 295t272.5 130q61 1 110 -14.5t85 -34.5q41 -22 63 -38.5t22 -8.5v71h50v-200h-50v50q0 2 -21.5 21t-59.5 41
q-38 24 -90 43.5t-109 19.5q-145 0 -237.5 -115t-92.5 -260q0 -132 96.5 -228.5t227.5 -96.5h3h3h2.5h2.5q71 3 123 39.5t86 80.5q35 45 50.5 82.5t10.5 37.5v0z" />
    <glyph glyph-name="I" unicode="H" horiz-adv-x="675" 
d="M0 0v50h75v700h-75v50h200v-50h-75v-325h400v325h-75v50h200v-50h-75v-700h75v-50h-200v50h75v325h-400v-325h75v-50h-200v0z" />
    <glyph glyph-name="J" unicode="I" horiz-adv-x="225" 
d="M0 0v50h75v700h-75v50h200v-50h-75v-700h75v-50h-200v0z" />
    <glyph glyph-name="K" unicode="J" horiz-adv-x="275" 
d="M25 0l3.5 -3.5t9.5 -8.5q6 -4 15 -8t20 -4v0h1v0v0h1.5h1.5h2h2q17 1 30.5 8.5t13.5 40.5v725h-75v50h200v-50h-75v-725q0 -35 -20 -57.5t-43 -32.5q-10 -5 -20 -7t-18 -2h-4.5t-4.5 1q-13 2 -25.5 9t-22.5 15q-9 9 -13.5 16t-3.5 9l25 24v0z" />
    <glyph glyph-name="L" unicode="K" horiz-adv-x="575" 
d="M0 0v50h75v700h-75v50h200v-50h-75v-350l300 350h-75v50h200v-50h-65l-300 -350l300 -350h65v-50h-200v50h75l-300 350v-350h75v-50h-200v0z" />
    <glyph glyph-name="M" unicode="L" horiz-adv-x="525" 
d="M0 0v50h75v700h-75v50h200v-50h-75v-700h325v125h50v-175h-500v0z" />
    <glyph glyph-name="N" unicode="M" horiz-adv-x="850" 
d="M0 0v50h75v700h-75v50h125l275 -550l300 550h125v-50h-75v-700h75v-50h-200v50h75v625l-300 -550l-275 525v-600h75v-50h-200v0z" />
    <glyph glyph-name="O" unicode="N" horiz-adv-x="675" 
d="M0 0v50h75v700h-75v50h125l400 -700v650h-75v50h200v-50h-75v-750h-50l-400 700v-650h75v-50h-200v0z" />
    <glyph glyph-name="P" unicode="O" horiz-adv-x="825" 
d="M0 400q0 164 118 282t282 118t282 -118t118 -282t-118 -282t-282 -118t-282 118t-118 282v0zM50 400q0 -143 103.5 -246.5t246.5 -103.5t246.5 103.5t103.5 246.5t-103.5 246.5t-246.5 103.5t-246.5 -103.5t-103.5 -246.5v0z" />
    <glyph glyph-name="Q" unicode="P" horiz-adv-x="525" 
d="M0 0v50h75v700h-75v50h250q93 0 169.5 -53.5t80.5 -146.5v-2.5v-2.5v-2.5v-2.5q1 -94 -77 -154.5t-173 -60.5h-125v-325h75v-50h-200v0zM125 425h120h1.5h1.5q76 1 139 48t63 122v1.5v1.5v0.5v1.5q-1 70 -60 108.5t-129 41.5h-5.5h-5.5h-125v-325v0z" />
    <glyph glyph-name="R" unicode="Q" horiz-adv-x="825" 
d="M0 400q0 164 118 282t282 118q162 0 281 -114.5t119 -275.5v-5.5v-4.5q-4 -146 -61.5 -226t-126.5 -117q-67 -37 -123.5 -45t-63.5 -11q-1 0 -1 -0.5t1 -0.5q-1 0 10.5 -7.5t29.5 -16.5q10 -5 21.5 -9.5t22.5 -7.5t21.5 -5.5t19.5 -2.5h0.5h1.5h1.5h0.5q10 0 21 2t22 5
q13 3 26 8t24 10q23 10 38 17.5t15 6.5v-50l-14 -7.5t-35 -16.5q-12 -5 -26 -10t-28 -8q-12 -3 -24 -5t-23 -2q-23 0 -45.5 8t-41.5 17q-20 9 -36 17t-29 8h-0.5h-0.5h-0.5h-0.5q-7 0 -14.5 -1t-15.5 -3l-14.5 -4t-14.5 -5q-15 -5 -26 -9.5t-11 -2.5t-1 4.5t-2 5.5l-2 6
t-1 5t1 3.5t3 0.5q1 0 14 5.5t28 13.5q3 1 5.5 2.5t5.5 3.5q17 10 27 17t-3 7h-2.5h-2.5h-2.5h-2.5q-13 0 -25.5 1.5t-25.5 3.5q-118 24 -216 139t-98 256v0zM50 400q0 -143 103.5 -246.5t246.5 -103.5t246.5 103.5t103.5 246.5t-103.5 246.5t-246.5 103.5t-246.5 -103.5
t-103.5 -246.5v0z" />
    <glyph glyph-name="S" unicode="R" horiz-adv-x="600" 
d="M125 375v-325h75v-50h-200v50h75v700h-75v50h250h1.5h1.5q92 -1 169 -54.5t78 -145.5q1 -58 -23 -94.5t-52 -58.5q-30 -23 -54 -33t-21 -14q-1 -1 -0.5 -1.5t2.5 -1.5q6 -3 27.5 -8.5t45.5 -19.5q27 -16 50.5 -49.5t24.5 -94.5q0 -10 0.5 -21t0.5 -23q0 -5 0.5 -10
t0.5 -10q0 -19 0.5 -37.5t0.5 -33.5v-24.5t-2 -15.5h74v-50h-125v225q0 41 -17 73.5t-53 48.5q-2 1 -14.5 5l-29.5 9q-10 3 -22 5.5t-24 4.5q-10 2 -20.5 3t-19.5 1h-125v0zM125 425h120h1.5h1.5q76 1 139 48t63 122v1.5v1.5v0.5v1.5q-1 70 -60 108.5t-129 41.5h-5.5h-5.5
h-125v-325v0z" />
    <glyph glyph-name="T" unicode="S" horiz-adv-x="475" 
d="M0 0v150h50v-25q0 -5 13.5 -15t34.5 -21q17 -9 37 -17.5t41 -13.5q13 -4 25.5 -6t24.5 -2q14 0 30.5 1t33.5 4q40 9 73.5 40t36.5 105v2v2v1v2q1 73 -38.5 114t-87.5 60q-19 7 -37.5 12t-34.5 7q-16 3 -40 11t-49 23q-42 23 -76.5 64.5t-36.5 101.5v0.5v1.5v1.5v0.5
q0 72 53.5 127t117.5 67q7 1 14.5 1.5t14.5 0.5q32 0 63 -8t56 -17q25 -10 40.5 -17.5l15.5 -7.5v50h50v-200h-50v50v2.5v3.5q-5 29 -45 55t-87 35q-10 2 -19.5 3t-19.5 1h-0.5h-1.5h-1.5h-0.5q-61 -1 -105.5 -44.5t-44.5 -105.5q-1 -61 42 -99.5t95 -48.5q3 -1 6.5 -1.5
t6.5 -0.5q22 -3 50.5 -10.5t58.5 -20.5q56 -26 103 -77.5t48 -141.5q1 -79 -42.5 -121.5t-96.5 -60.5q-26 -9 -51 -12.5t-45 -4.5v0v0h-1v0q-14 0 -33 4t-38 10q-9 2 -17.5 5l-16.5 6q-28 10 -48.5 18t-20.5 6v-50h-50v0z" />
    <glyph glyph-name="U" unicode="T" horiz-adv-x="625" 
d="M0 650v150h600v-150h-50v100h-225v-700h75v-50h-200v50h75v700h-225v-100h-50v0z" />
    <glyph glyph-name="V" unicode="U" horiz-adv-x="675" 
d="M0 800h200v-50h-75v-550q0 -69 57.5 -107t126.5 -43h8h8h8h8q69 5 126.5 43t57.5 107v550h-75v50h200v-50h-75v-550q0 -92 -76.5 -145t-167.5 -55h-3.5h-2.5h-2.5h-3.5q-91 2 -167.5 55t-76.5 145v550h-75v50v0z" />
    <glyph glyph-name="W" unicode="V" horiz-adv-x="625" 
d="M0 800h200v-50h-75l175 -600l175 600h-75v50h200v-50h-75l-225 -750l-225 750h-75v50v0z" />
    <glyph glyph-name="X" unicode="W" horiz-adv-x="1026" 
d="M502 668l-202 -668l-225 750h-75v50h200v-50h-75l175 -600l189 652h42l169 -652l175 600h-75v50h200v-50h-75l-225 -750l-195 668h-3v0z" />
    <glyph glyph-name="Y" unicode="X" horiz-adv-x="625" 
d="M0 0v50h75l200 350l-200 350h-75v50h200v-50h-75l175 -300l175 300h-75v50h200v-50h-75l-200 -350l200 -350h75v-50h-200v50h75l-175 300l-175 -300h75v-50h-200v0z" />
    <glyph glyph-name="Z" unicode="Y" horiz-adv-x="600" 
d="M275 400l-200 350h-75v50h200v-50h-75l175 -300l150 300h-75v50h200v-50h-75l-175 -350v-350h75v-50h-200v50h75v350v0z" />
    <glyph glyph-name="bracketleft" unicode="Z" horiz-adv-x="525" 
d="M0 675v125h500v-50l-440 -700h390v75h50v-125h-500v50l440 700h-390v-75h-50v0z" />
    <glyph glyph-name="backslash" unicode="[" horiz-adv-x="175" 
d="M0 0v800h150v-50h-100v-700h100v-50h-150v0z" />
    <glyph glyph-name="bracketright" unicode="\" horiz-adv-x="325" 
d="M0 800h55l245 -800h-50l-250 800v0z" />
    <glyph glyph-name="asciicircum" unicode="]" horiz-adv-x="175" 
d="M150 800v-800h-150v50h100v700h-100v50h150v0z" />
    <glyph glyph-name="underscore" unicode="^" horiz-adv-x="325" 
d="M0 500v50l150 100l150 -100v-50l-150 100l-150 -100v0z" />
    <glyph glyph-name="grave" unicode="_" horiz-adv-x="800" 
d="M0 0v50h800v-50h-800v0z" />
    <glyph glyph-name="a" unicode="`" horiz-adv-x="225" 
d="M0 700h50l150 -200h-50l-150 200v0z" />
    <glyph glyph-name="b" unicode="a" horiz-adv-x="500" 
d="M200 0q-76 3 -138 51t-62 124q0 77 62 124t138 51h3.5h3.5h3.5h3.5q35 1 64 -8.5t56 -29.5l8 -6l8 -6v4t1 8v9.5v11.5v3.5v3.5v21t-1 14v0.5v0.5q0 4 -2 14.5t-13 21.5q-13 14 -44 25.5t-91 12.5q-39 1 -70 -7t-60 -28q-5 -4 -10 -7.5t-10 -7.5v50q7 6 14.5 11t14.5 9
q27 16 56 22.5t65 7.5h2.5h2.5h2.5h2.5q11 0 23 -1l24 -2q54 -8 98.5 -37t44.5 -85v-38.5v-44.5v-80.5v-36.5v-125h75v-50h-125v50l-10.5 -8l-10.5 -8q-27 -18 -55 -26t-62 -8h-6h-6v0zM200 300q-56 0 -103 -34.5t-47 -90.5t47 -90.5t103 -34.5q57 0 103.5 36.5t46.5 93.5
q0 54 -45 86t-99 34h-3.5h-2.5v0z" />
    <glyph glyph-name="c" unicode="b" horiz-adv-x="575" 
d="M0 0v50h75v700h-75v50h125v-400q31 45 83.5 73t116.5 27q6 0 11.5 -0.5t11.5 -1.5q76 -13 139 -85t63 -163q0 -85 -47 -145.5t-103 -86.5q-20 -9 -39 -13.5t-36 -4.5q-63 0 -111.5 19t-88.5 68v-87h-125v0zM125 250q1 -82 59.5 -140t140.5 -60h0.5h0.5h0.5h0.5
q65 0 118.5 62t54.5 138q1 68 -44 125.5t-100 73.5q-8 3 -15.5 4.5t-15.5 1.5h-2.5h-3.5q-81 0 -138 -62t-56 -143v0z" />
    <glyph glyph-name="d" unicode="c" horiz-adv-x="475" 
d="M225 0q-97 11 -161 82t-64 168q0 98 64 172t161 78h3h3h2.5h2.5q50 0 90 -18.5t74 -56.5v75h50v-150h-50q-25 48 -66.5 74t-94.5 26h-6.5h-7.5q-76 -5 -125.5 -64t-49.5 -136q0 -76 49.5 -133.5t125.5 -66.5q3 0 6 -0.5t7 -0.5h6h6q46 0 83.5 19.5t66.5 56.5l50 -25
q-37 -50 -85.5 -75.5t-107.5 -25.5h-8t-8 1h-8h-8v0z" />
    <glyph glyph-name="e" unicode="d" horiz-adv-x="575" 
d="M550 0h-125v87q-40 -49 -88.5 -68t-111.5 -19q-17 0 -36 4.5t-39 13.5q-56 26 -103 86.5t-47 145.5q0 91 63 163t139 85q6 1 11.5 1.5t11.5 0.5q65 1 117 -27t83 -73v400h125v-50h-75v-700h75v-50v0zM425 250q1 81 -56 143t-138 62h-2.5h-3.5q-8 0 -15.5 -1.5t-15.5 -4.5
q-55 -16 -100 -73.5t-44 -125.5q1 -76 54.5 -138t118.5 -62h0.5h0.5h0.5h0.5q82 2 140.5 60t59.5 140v0z" />
    <glyph glyph-name="f" unicode="e" horiz-adv-x="475" 
d="M225 0q-97 11 -161 82t-64 168q0 98 64 174t161 76q92 0 159 -69t67 -159v-5.5v-5.5t-0.5 -5.5t-0.5 -5.5h-400q-1 -4 -1 -8.5v-9.5q0 -70 52.5 -122t123.5 -60q5 -1 9 -1h8q41 0 74.5 20.5t58.5 55.5l50 -25q-32 -47 -76 -73.5t-100 -26.5h-12h-12v0zM395 300
q-9 65 -57 107.5t-113 42.5q-67 0 -116.5 -42t-58.5 -108h345v0z" />
    <glyph glyph-name="g" unicode="f" horiz-adv-x="225" 
d="M0 0v50h75v400h-75v50h75v175l5.5 19.5t19.5 43.5q14 23 38.5 42.5t61.5 19.5v-2t1 -5v-7v-9v-1.5v-1.5v-16.5t-1 -7.5q-18 -2 -31.5 -13t-23.5 -24q-10 -14 -15 -26l-5 -12v-175h75v-50h-75v-400h75v-50h-200v0z" />
    <glyph glyph-name="h" unicode="g" horiz-adv-x="575" 
d="M425 50v50q-31 -45 -83 -72.5t-117 -27.5q-6 0 -11.5 0.5t-11.5 1.5q-76 13 -139 85t-63 163q0 85 47 145.5t103 86.5q20 9 39 13.5t36 4.5q63 0 111.5 -19t88.5 -68v87h125v-50h-75v-61v-129v-18v-18v-73.5v-55.5q0 -141 -60 -207t-132 -82q-14 -2 -27 -3.5t-26 -1.5
q-73 0 -126 41t-79 109l50 -1q24 -43 61.5 -69t88.5 -25q80 1 140 55t60 132v2v2v1v2v0zM425 250q-1 82 -59.5 140.5t-140.5 59.5h-0.5h-0.5h-0.5h-0.5q-65 0 -118.5 -62t-54.5 -138q-1 -68 44 -125.5t100 -73.5q8 -3 15.5 -4.5t15.5 -1.5h3.5h2.5q81 0 138 62t56 143v0z
" />
    <glyph glyph-name="i" unicode="h" horiz-adv-x="575" 
d="M0 0v50h75v700h-75v50h125v-375q32 41 73 58t92 17h2.5h2.5h2.5h2.5q66 -2 118 -60t60 -126q1 -6 1.5 -12t0.5 -12q0 -10 -1.5 -20t-3.5 -20v-200h75v-50h-200v50h75v200q3 10 4.5 20.5t1.5 20.5q0 56 -37 104t-94 55q-3 0 -5.5 0.5t-4.5 0.5h-4.5h-5.5
q-56 1 -100.5 -34.5t-54.5 -91.5v-275h75v-50h-200v0z" />
    <glyph glyph-name="j" unicode="i" horiz-adv-x="225" 
d="M0 0v50h75v400h-75v50h125v-450h75v-50h-200v0zM125 600h-50v50h50v-50v0z" />
    <glyph glyph-name="k" unicode="j" horiz-adv-x="150" 
d="M75 0v450h-75v50h125v-500q-5 -24 -17.5 -42t-32.5 -32q-4 -3 -8.5 -6t-9.5 -5q-13 -7 -26.5 -10.5t-30.5 -3.5v49q0 1 0.5 1h1.5h1.5h0.5q10 0 18.5 2.5t17.5 6.5q2 1 4 2.5t4 2.5q11 7 17 15.5t10 19.5v0zM125 600h-50v50h50v-50v0z" />
    <glyph glyph-name="l" unicode="k" horiz-adv-x="475" 
d="M125 250v-200h75v-50h-200v50h75v700h-75v50h125v-550l175 200h-75v50h175v-50h-50l-175 -200l200 -200h75v-50h-75l-250 250v0z" />
    <glyph glyph-name="m" unicode="l" horiz-adv-x="225" 
d="M0 0v50h75v700h-75v50h125v-750h75v-50h-200v0z" />
    <glyph glyph-name="n" unicode="m" horiz-adv-x="925" 
d="M475 250v-200h75v-50h-200v50h75v200v4v11q0 14 -2 37t-11 48q-12 37 -43.5 68t-93.5 32q-56 1 -97.5 -34t-52.5 -91v-275h75v-50h-200v50h75v400h-75v50h125v-75q29 38 65.5 57t84.5 18q64 -2 100.5 -26t54.5 -53q9 -14 14.5 -26.5t8.5 -23.5q0 1 0.5 1.5t0.5 1.5
q16 47 57.5 86.5t104.5 39.5h4.5h4.5q77 -4 135.5 -51t64.5 -124v-275h75v-50h-200v50h75v275q-10 56 -52 90t-98 35h-1.5h-2.5q-56 0 -85.5 -31t-43.5 -69q-13 -36 -15 -67t-2 -33v0v0v0z" />
    <glyph glyph-name="o" unicode="n" horiz-adv-x="575" 
d="M0 0v50h75v400h-75v50h125v-75q32 41 73 58t92 17h2.5h2.5h2.5h2.5q66 -2 118 -60t60 -126q1 -6 1.5 -12t0.5 -12q0 -10 -1.5 -20t-3.5 -20v-200h75v-50h-200v50h75v200q3 10 4.5 20.5t1.5 20.5q0 56 -37 104t-94 55q-3 0 -5.5 0.5t-4.5 0.5h-4.5h-5.5
q-56 1 -100.5 -34.5t-54.5 -91.5v-275h75v-50h-200v0z" />
    <glyph glyph-name="p" unicode="o" horiz-adv-x="525" 
d="M0 250q0 102 74 176t176 74t176 -74t74 -176t-74 -176t-176 -74t-176 74t-74 176v0zM50 250q0 -81 57 -139.5t138 -60.5h1.5h1.5q82 0 142 59t60 141t-59 141t-141 59t-141 -59t-59 -141v0z" />
    <glyph glyph-name="q" unicode="p" horiz-adv-x="575" 
d="M0 500h125v-87q40 49 88.5 68t111.5 19q17 0 36 -4.5t39 -13.5q56 -26 103 -86.5t47 -145.5q0 -91 -63 -163t-139 -85q-6 -1 -11.5 -1.5t-11.5 -0.5q-64 0 -116.5 27.5t-83.5 72.5v-250h75v-50h-200v50h75v600h-75v50v0zM125 250q-1 -81 56 -143t138 -62h3.5h2.5
q8 0 15.5 1.5t15.5 4.5q55 16 100 73.5t44 125.5q-1 76 -54.5 138t-118.5 62h-0.5h-0.5h-0.5h-0.5q-82 -1 -140.5 -59.5t-59.5 -140.5v0z" />
    <glyph glyph-name="r" unicode="q" horiz-adv-x="575" 
d="M550 500v-50h-75v-600h75v-50h-200v50h75v250q-31 -45 -83 -72.5t-117 -27.5q-6 0 -11.5 0.5t-11.5 1.5q-76 13 -139 85t-63 163q0 85 47 145.5t103 86.5q20 9 39 13.5t36 4.5q63 0 111.5 -19t88.5 -68v87h125v0zM425 250q-1 82 -59.5 140.5t-140.5 59.5h-0.5h-0.5h-0.5
h-0.5q-65 0 -118.5 -62t-54.5 -138q-1 -68 44 -125.5t100 -73.5q8 -3 15.5 -4.5t15.5 -1.5h3.5h2.5q81 0 138 62t56 143v0z" />
    <glyph glyph-name="s" unicode="r" horiz-adv-x="425" 
d="M0 0v50h75v400h-75v50h125v-75q31 35 66.5 53t83.5 22q6 1 12 1h12q15 0 28 -1.5t26 -5.5q11 -3 22.5 -8l24.5 -11v-50q-9 5 -17.5 9l-16.5 8q-14 5 -28.5 8t-29.5 3q-7 0 -15.5 -0.5t-17.5 -2.5q-55 -10 -93.5 -41t-56.5 -84v-275h75v-50h-200v0z" />
    <glyph glyph-name="t" unicode="s" horiz-adv-x="375" 
d="M0 0v150h50v-25q17 -32 44.5 -54t61.5 -23h4.5t5.5 1q2 0 4.5 0.5t4.5 0.5l14 2l14 2h2.5h2.5q34 4 62.5 14.5t29.5 56.5q1 47 -32 71.5t-93 28.5q-96 5 -135.5 39.5t-39.5 93.5v4v4v4.5v4.5q4 56 50 91.5t102 35.5h6t6 -1q2 0 5 -0.5t6 -0.5q32 -4 55 -15.5t45 -34.5v50
h50v-150h-50v50q-19 25 -43.5 36t-56.5 14h-3.5t-3.5 1h-3.5h-3.5h-1.5h-1.5q-38 -1 -71 -20t-37 -56q-1 -4 -1 -7.5v-7.5q0 -38 27.5 -61.5t91.5 -23.5h3.5h3.5h1.5h1.5h0.5h1.5q83 0 127 -42t43 -108q-1 -74 -48.5 -94.5t-103.5 -27.5q-4 -1 -8 -1.5t-8 -0.5
q-2 0 -3.5 -0.5t-3.5 -0.5h-4h-4h-4h-4q-31 0 -57.5 14t-51.5 36v-50h-50v0z" />
    <glyph glyph-name="u" unicode="t" horiz-adv-x="275" 
d="M0 450v50h70v200h55v-200h125v-50h-125v-400h125v-50h-175v450h-75v0z" />
    <glyph glyph-name="v" unicode="u" horiz-adv-x="575" 
d="M0 500h125v-350q17 -43 46.5 -72t78.5 -28q58 1 106.5 24t68.5 76v300h-75v50h125v-450h75v-50h-125v75q-33 -43 -76.5 -58.5t-98.5 -16.5h-1.5h-1.5q-62 0 -109 43t-63 107v300h-75v50v0z" />
    <glyph glyph-name="w" unicode="v" horiz-adv-x="525" 
d="M0 500h200v-50h-75l125 -400l125 400h-75v50h200v-50h-75l-150 -450h-50l-150 450h-75v50v0z" />
    <glyph glyph-name="x" unicode="w" horiz-adv-x="825" 
d="M525 0l-125 425l-125 -425h-50l-150 450h-75v50h200v-50h-75l125 -400l125 450h50l125 -450l125 400h-75v50h200v-50h-75l-150 -450h-50v0z" />
    <glyph glyph-name="y" unicode="x" horiz-adv-x="525" 
d="M0 0v50h75l150 200l-150 200h-75v50h200v-50h-75l125 -175l125 175h-75v50h200v-50h-75l-150 -200l150 -200h75v-50h-200v50h75l-125 175l-125 -175h75v-50h-200v0z" />
    <glyph glyph-name="z" unicode="y" horiz-adv-x="525" 
d="M225 0l-150 450h-75v50h200v-50h-75l125 -400l125 400h-75v50h200v-50h-75l-150 -450q-1 -5 -3 -11.5l-4 -12.5q-22 -62 -81 -115t-137 -60h-6t-6 -1h-2h-2h-4h-4h-6.5h-6.5t-6.5 0.5t-6.5 0.5v49h8.5h7.5h4h4h6.5h6.5t6.5 0.5t6.5 0.5q66 7 112 46.5t63 102.5v0z" />
    <glyph glyph-name="braceleft" unicode="z" horiz-adv-x="475" 
d="M0 0v50l375 400h-325v-75h-50v125h450v-50l-375 -400h325v75h50v-125h-450v0z" />
    <glyph glyph-name="bar" unicode="{" horiz-adv-x="225" 
d="M0 400l7.5 5t16.5 10h0.5t0.5 1l16.5 9t8.5 5q41 26 52.5 70t11.5 91v9.5v9.5q0 9 -0.5 18t-0.5 19q-1 13 -1.5 26.5t-0.5 25.5q0 36 7 63t32 38q10 4 16.5 11t12.5 15q1 2 2.5 3.5t2.5 3.5q4 4 7.5 8.5t8.5 8.5l-6 -11.5l-6 -10.5q-2 -4 -3.5 -7.5t-3.5 -7.5
q-2 -3 -3 -6t-3 -7q-13 -32 -17 -61.5t-4 -58.5v-8v-8v-6v-5q1 -29 0 -59.5t-9 -63.5q-1 -5 -2.5 -10.5t-2.5 -9.5q-6 -27 -15.5 -47t-33.5 -38q-8 -6 -18.5 -12.5t-22.5 -12.5q-10 -5 -11.5 -8.5t2.5 -6.5q5 -5 19.5 -10.5t30.5 -14.5q21 -11 37.5 -31t16.5 -55v-3.5v-3.5
l-2 -48t-1 -45q0 -15 0.5 -29.5t2.5 -28.5q2 -29 9.5 -58t20.5 -60q2 -4 3 -7t3 -6q2 -4 3.5 -7.5t3.5 -7.5l6 -10.5l6 -11.5q-5 4 -8.5 8.5t-7.5 8.5q-1 2 -2.5 3.5t-2.5 3.5q-6 8 -12.5 15t-16.5 11q-28 11 -35.5 44.5t-7.5 75.5v18t1 18v18v18q0 51 -10 95.5t-48 64.5
q-1 1 -2 1.5t-2 0.5q-6 4 -10 7.5t-8 8.5l-11 13.5t-17 18.5v0z" />
    <glyph glyph-name="braceright" unicode="|" horiz-adv-x="75" 
d="M0 -200v1000h50v-1000h-50v0z" />
    <glyph glyph-name="asciitilde" unicode="}" horiz-adv-x="225" 
d="M200 403q-11 -11 -17 -18.5l-11 -13.5q-4 -5 -8 -8.5t-10 -7.5q-1 0 -2 -0.5t-2 -1.5q-38 -20 -48 -64.5t-10 -95.5v-18t1 -18v-18v-18q0 -42 -7 -75.5t-36 -45.5q-10 -3 -16.5 -10t-12.5 -15q-1 -2 -2.5 -3.5t-2.5 -3.5q-4 -4 -7.5 -8.5t-8.5 -8.5l6 11.5l6 10.5
q2 4 3.5 7.5t3.5 7.5q2 3 3.5 6t2.5 6q14 32 21 61t9 58q2 14 2.5 28.5t0.5 29.5q0 22 -0.5 45t-2.5 48v3.5v3.5q0 35 16.5 55t37.5 31q16 9 30.5 14.5t19.5 10.5q4 3 2.5 6.5t-11.5 8.5q-12 6 -22.5 12.5t-18.5 12.5q-24 18 -33.5 38t-15.5 47q-1 4 -2.5 9.5t-2.5 10.5
q-8 33 -9 63.5t0 59.5v5v6v8v8q0 29 -3.5 58.5t-17.5 61.5q-1 4 -2.5 7t-3.5 6q-2 4 -3.5 7.5t-3.5 7.5l-6 10.5l-6 11.5q5 -4 8.5 -8.5t7.5 -8.5q1 -2 2.5 -3.5t2.5 -3.5q6 -8 12.5 -15t16.5 -11q25 -11 32 -38t7 -63q0 -12 -0.5 -25.5t-0.5 -26.5q-1 -10 -1.5 -19
t-0.5 -18v-9.5v-9.5q0 -47 12 -91t52 -70q1 -1 8.5 -5l16.5 -9q0 -1 0.5 -1h0.5q9 -5 16.5 -10l7.5 -5v0z" />
    <glyph glyph-name="bullet" unicode="~" horiz-adv-x="400" 
d="M0 550q27 26 57 38t68 12q19 0 34 -8t29 -17q13 -9 28 -17t34 -8q38 0 68 12.5t57 37.5v-50q-27 -25 -57 -37.5t-68 -12.5q-19 0 -34 8t-28 17q-14 9 -29 17t-34 8q-38 0 -68 -12t-57 -38v50v0z" />
    <glyph glyph-name="Adieresis" unicode="&#xc4;" 
 />
    <glyph glyph-name="Aring" unicode="&#xc5;" 
 />
    <glyph glyph-name="Ccedilla" unicode="&#xc7;" 
 />
    <glyph glyph-name="Eacute" unicode="&#xc9;" 
 />
    <glyph glyph-name="Ntilde" unicode="&#xd1;" 
 />
    <glyph glyph-name="Odieresis" unicode="&#xd6;" 
 />
    <glyph glyph-name="Udieresis" unicode="&#xdc;" 
 />
    <glyph glyph-name="aacute" unicode="&#xe1;" 
 />
    <glyph glyph-name="agrave" unicode="&#xe0;" 
 />
    <glyph glyph-name="acircumflex" unicode="&#xe2;" 
 />
    <glyph glyph-name="adieresis" unicode="&#xe4;" 
 />
    <glyph glyph-name="atilde" unicode="&#xe3;" 
 />
    <glyph glyph-name="aring" unicode="&#xe5;" 
 />
    <glyph glyph-name="ccedilla" unicode="&#xe7;" 
 />
    <glyph glyph-name="eacute" unicode="&#xe9;" 
 />
    <glyph glyph-name="egrave" unicode="&#xe8;" 
 />
    <glyph glyph-name="ecircumflex" unicode="&#xea;" 
 />
    <glyph glyph-name="edieresis" unicode="&#xeb;" 
 />
    <glyph glyph-name="iacute" unicode="&#xed;" 
 />
    <glyph glyph-name="igrave" unicode="&#xec;" 
 />
    <glyph glyph-name="icircumflex" unicode="&#xee;" 
 />
    <glyph glyph-name="idieresis" unicode="&#xef;" 
 />
    <glyph glyph-name="ntilde" unicode="&#xf1;" 
 />
    <glyph glyph-name="oacute" unicode="&#xf3;" 
 />
    <glyph glyph-name="ograve" unicode="&#xf2;" 
 />
    <glyph glyph-name="ocircumflex" unicode="&#xf4;" 
 />
    <glyph glyph-name="odieresis" unicode="&#xf6;" 
 />
    <glyph glyph-name="otilde" unicode="&#xf5;" 
 />
    <glyph glyph-name="uacute" unicode="&#xfa;" 
 />
    <glyph glyph-name="ugrave" unicode="&#xf9;" 
 />
    <glyph glyph-name="ucircumflex" unicode="&#xfb;" 
 />
    <glyph glyph-name="udieresis" unicode="&#xfc;" 
 />
    <glyph glyph-name="dagger" unicode="&#x2020;" 
 />
    <glyph glyph-name="glyph131" 
 />
    <glyph glyph-name="cent" unicode="&#xa2;" 
 />
    <glyph glyph-name="sterling" unicode="&#xa3;" 
 />
    <glyph glyph-name="section" unicode="&#xa7;" 
 />
    <glyph glyph-name="glyph135" horiz-adv-x="225" 
d="M0 400q0 41 30 70.5t70 29.5q41 0 70.5 -29.5t29.5 -70.5q0 -40 -29.5 -70t-70.5 -30q-40 0 -70 30t-30 70v0z" />
    <glyph glyph-name="paragraph" unicode="&#xb6;" 
 />
    <glyph glyph-name="germandbls" unicode="&#xdf;" 
 />
    <glyph glyph-name="registered" unicode="&#xae;" 
 />
    <glyph glyph-name="copyright" unicode="&#xa9;" 
 />
    <glyph glyph-name="trademark" unicode="&#x2122;" 
 />
    <glyph glyph-name="acute" unicode="&#xb4;" 
 />
    <glyph glyph-name="dieresis" unicode="&#xa8;" 
 />
    <glyph glyph-name="notequal" unicode="&#x2260;" 
 />
    <glyph glyph-name="AE" unicode="&#xc6;" 
 />
    <glyph glyph-name="Oslash" unicode="&#xd8;" 
 />
    <glyph glyph-name="infinity" unicode="&#x221e;" 
 />
    <glyph glyph-name="plusminus" unicode="&#xb1;" 
 />
    <glyph glyph-name="lessequal" unicode="&#x2264;" 
 />
    <glyph glyph-name="greaterequal" unicode="&#x2265;" 
 />
    <glyph glyph-name="yen" unicode="&#xa5;" 
 />
    <glyph glyph-name="uni00B5" unicode="&#xb5;" 
 />
    <glyph glyph-name="partialdiff" unicode="&#x2202;" 
 />
    <glyph glyph-name="Sigma" unicode="&#x3a3;" 
 />
    <glyph glyph-name="product" unicode="&#x220f;" 
 />
    <glyph glyph-name="pi" unicode="&#x3c0;" 
 />
    <glyph glyph-name="integral" unicode="&#x222b;" 
 />
    <glyph glyph-name="ordfeminine" unicode="&#xaa;" 
 />
    <glyph glyph-name="ordmasculine" unicode="&#xba;" 
 />
    <glyph glyph-name="Omega" unicode="&#x3a9;" 
 />
    <glyph glyph-name="ae" unicode="&#xe6;" 
 />
    <glyph glyph-name="oslash" unicode="&#xf8;" 
 />
    <glyph glyph-name="questiondown" unicode="&#xbf;" 
 />
    <glyph glyph-name="exclamdown" unicode="&#xa1;" 
 />
    <glyph glyph-name="logicalnot" unicode="&#xac;" 
 />
    <glyph glyph-name="radical" unicode="&#x221a;" 
 />
    <glyph glyph-name="florin" unicode="&#x192;" 
 />
    <glyph glyph-name="approxequal" unicode="&#x2248;" 
 />
    <glyph glyph-name="uni2206" unicode="&#x2206;" 
 />
    <glyph glyph-name="guillemotleft" unicode="&#xab;" 
 />
    <glyph glyph-name="guillemotright" unicode="&#xbb;" 
 />
    <glyph glyph-name="ellipsis" unicode="&#x2026;" 
 />
    <glyph glyph-name="Agrave" unicode="&#xc0;" 
 />
    <glyph glyph-name="Atilde" unicode="&#xc3;" 
 />
    <glyph glyph-name="Otilde" unicode="&#xd5;" 
 />
    <glyph glyph-name="OE" unicode="&#x152;" 
 />
    <glyph glyph-name="oe" unicode="&#x153;" 
 />
    <glyph glyph-name="glyph177" 
 />
    <glyph glyph-name="emdash" unicode="&#x2014;" 
 />
    <glyph glyph-name="quotedblleft" unicode="&#x201c;" 
 />
    <glyph glyph-name="quotedblright" unicode="&#x201d;" 
 />
    <glyph glyph-name="quoteleft" unicode="&#x2018;" 
 />
    <glyph glyph-name="quoteright" unicode="&#x2019;" 
 />
    <glyph glyph-name="divide" unicode="&#xf7;" 
 />
    <glyph glyph-name="lozenge" unicode="&#x25ca;" 
 />
    <glyph glyph-name="ydieresis" unicode="&#xff;" 
 />
    <glyph glyph-name="Ydieresis" unicode="&#x178;" 
 />
    <glyph glyph-name="uni2215" unicode="&#x2215;" 
 />
    <glyph glyph-name="currency" unicode="&#xa4;" 
 />
    <glyph glyph-name="guilsinglleft" unicode="&#x2039;" 
 />
    <glyph glyph-name="guilsinglright" unicode="&#x203a;" 
 />
    <glyph glyph-name="uniF001" unicode="&#xf001;" 
 />
    <glyph glyph-name="uniF002" unicode="&#xf002;" 
 />
    <glyph glyph-name="daggerdbl" unicode="&#x2021;" 
 />
    <glyph glyph-name="uni2219" unicode="&#x2219;" 
 />
    <glyph glyph-name="quotesinglbase" unicode="&#x201a;" 
 />
    <glyph glyph-name="quotedblbase" unicode="&#x201e;" 
 />
    <glyph glyph-name="perthousand" unicode="&#x2030;" 
 />
    <glyph glyph-name="Acircumflex" unicode="&#xc2;" 
 />
    <glyph glyph-name="Ecircumflex" unicode="&#xca;" 
 />
    <glyph glyph-name="Aacute" unicode="&#xc1;" 
 />
    <glyph glyph-name="Edieresis" unicode="&#xcb;" 
 />
    <glyph glyph-name="Egrave" unicode="&#xc8;" 
 />
    <glyph glyph-name="Iacute" unicode="&#xcd;" 
 />
    <glyph glyph-name="Icircumflex" unicode="&#xce;" 
 />
    <glyph glyph-name="Idieresis" unicode="&#xcf;" 
 />
    <glyph glyph-name="Igrave" unicode="&#xcc;" 
 />
    <glyph glyph-name="Oacute" unicode="&#xd3;" 
 />
    <glyph glyph-name="Ocircumflex" unicode="&#xd4;" 
 />
    <glyph glyph-name="uniF000" unicode="&#xf000;" 
 />
    <glyph glyph-name="Ograve" unicode="&#xd2;" 
 />
    <glyph glyph-name="Uacute" unicode="&#xda;" 
 />
    <glyph glyph-name="Ucircumflex" unicode="&#xdb;" 
 />
    <glyph glyph-name="Ugrave" unicode="&#xd9;" 
 />
    <glyph glyph-name="dotlessi" unicode="&#x131;" 
 />
    <glyph glyph-name="tilde" unicode="&#x2dc;" 
 />
    <glyph glyph-name="circumflex" unicode="&#x2c6;" 
 />
    <glyph glyph-name="uni02C9" unicode="&#x2c9;" 
 />
    <glyph glyph-name="breve" unicode="&#x2d8;" 
 />
    <glyph glyph-name="dotaccent" unicode="&#x2d9;" 
 />
    <glyph glyph-name="ring" unicode="&#x2da;" 
 />
    <glyph glyph-name="cedilla" unicode="&#xb8;" 
 />
    <glyph glyph-name="uni02BA" unicode="&#x2ba;" 
 />
    <glyph glyph-name="ogonek" unicode="&#x2db;" 
 />
    <glyph glyph-name="caron" unicode="&#x2c7;" 
 />
    <glyph glyph-name="Lslash" unicode="&#x141;" 
 />
    <glyph glyph-name="lslash" unicode="&#x142;" 
 />
    <glyph glyph-name="Scaron" unicode="&#x160;" 
 />
    <glyph glyph-name="scaron" unicode="&#x161;" 
 />
    <glyph glyph-name="Zcaron" unicode="&#x17d;" 
 />
    <glyph glyph-name="zcaron" unicode="&#x17e;" 
 />
    <glyph glyph-name="brokenbar" unicode="&#xa6;" 
 />
    <glyph glyph-name="Eth" unicode="&#xd0;" 
 />
    <glyph glyph-name="eth" unicode="&#xf0;" 
 />
    <glyph glyph-name="Yacute" unicode="&#xdd;" 
 />
    <glyph glyph-name="yacute" unicode="&#xfd;" 
 />
    <glyph glyph-name="Thorn" unicode="&#xde;" 
 />
    <glyph glyph-name="thorn" unicode="&#xfe;" 
 />
    <glyph glyph-name="minus" unicode="&#x2212;" 
 />
    <glyph glyph-name="multiply" unicode="&#xd7;" 
 />
    <glyph glyph-name="uni00B9" unicode="&#xb9;" 
 />
    <glyph glyph-name="uni00B2" unicode="&#xb2;" 
 />
    <glyph glyph-name="uni00B3" unicode="&#xb3;" 
 />
    <glyph glyph-name="onehalf" unicode="&#xbd;" 
 />
    <glyph glyph-name="onequarter" unicode="&#xbc;" 
 />
    <glyph glyph-name="threequarters" unicode="&#xbe;" 
 />
    <glyph glyph-name="franc" unicode="&#x20a3;" 
 />
    <glyph glyph-name="Gbreve" unicode="&#x11e;" 
 />
    <glyph glyph-name="gbreve" unicode="&#x11f;" 
 />
    <glyph glyph-name="Idotaccent" unicode="&#x130;" 
 />
    <glyph glyph-name="Scedilla" unicode="&#x15e;" 
 />
    <glyph glyph-name="scedilla" unicode="&#x15f;" 
 />
    <glyph glyph-name="Cacute" unicode="&#x106;" 
 />
    <glyph glyph-name="cacute" unicode="&#x107;" 
 />
    <glyph glyph-name="Ccaron" unicode="&#x10c;" 
 />
    <glyph glyph-name="ccaron" unicode="&#x10d;" 
 />
    <glyph glyph-name="dcroat" unicode="&#x111;" 
 />
    <glyph glyph-name="arrowright" unicode="&#x2192;" 
 />
    <glyph glyph-name="house" unicode="&#x2302;" 
 />
    <glyph glyph-name="endash" unicode="&#x2013;" 
 />
    <glyph glyph-name="uni00AD" unicode="&#xad;" 
 />
    <glyph glyph-name="filledbox" unicode="&#x25a0;" 
 />
    <glyph glyph-name="glyph262" unicode="&#x2022;" 
 />
    <glyph glyph-name="macron" unicode="&#xaf;" 
 />
    <glyph glyph-name="degree" unicode="&#xb0;" 
 />
    <glyph glyph-name="periodcentered" unicode="&#xb7;" 
 />
    <glyph glyph-name="underscoredbl" unicode="&#x2017;" 
 />
    <glyph glyph-name="exclamdbl" unicode="&#x203c;" 
 />
    <glyph glyph-name="uni207F" unicode="&#x207f;" 
 />
    <glyph glyph-name="peseta" unicode="&#x20a7;" 
 />
    <glyph glyph-name="Gamma" unicode="&#x393;" 
 />
    <glyph glyph-name="Theta" unicode="&#x398;" 
 />
    <glyph glyph-name="Phi" unicode="&#x3a6;" 
 />
    <glyph glyph-name="alpha" unicode="&#x3b1;" 
 />
    <glyph glyph-name="delta" unicode="&#x3b4;" 
 />
    <glyph glyph-name="epsilon" unicode="&#x3b5;" 
 />
    <glyph glyph-name="sigma" unicode="&#x3c3;" 
 />
    <glyph glyph-name="tau" unicode="&#x3c4;" 
 />
    <glyph glyph-name="phi" unicode="&#x3c6;" 
 />
    <glyph glyph-name="arrowleft" unicode="&#x2190;" 
 />
    <glyph glyph-name="arrowup" unicode="&#x2191;" 
 />
    <glyph glyph-name="arrowdown" unicode="&#x2193;" 
 />
    <glyph glyph-name="arrowboth" unicode="&#x2194;" 
 />
    <glyph glyph-name="arrowupdn" unicode="&#x2195;" 
 />
    <glyph glyph-name="arrowupdnbse" unicode="&#x21a8;" 
 />
    <glyph glyph-name="orthogonal" unicode="&#x221f;" 
 />
    <glyph glyph-name="intersection" unicode="&#x2229;" 
 />
    <glyph glyph-name="equivalence" unicode="&#x2261;" 
 />
    <glyph glyph-name="revlogicalnot" unicode="&#x2310;" 
 />
    <glyph glyph-name="integraltp" unicode="&#x2320;" 
 />
    <glyph glyph-name="integralbt" unicode="&#x2321;" 
 />
    <glyph glyph-name="filledrect" unicode="&#x25ac;" 
 />
    <glyph glyph-name="circle" unicode="&#x25cb;" 
 />
    <glyph glyph-name="triagup" unicode="&#x25b2;" 
 />
    <glyph glyph-name="triagrt" unicode="&#x25ba;" 
 />
    <glyph glyph-name="triagdn" unicode="&#x25bc;" 
 />
    <glyph glyph-name="triaglf" unicode="&#x25c4;" 
 />
    <glyph glyph-name="invbullet" unicode="&#x25d8;" 
 />
    <glyph glyph-name="invcircle" unicode="&#x25d9;" 
 />
    <glyph glyph-name="Rcaron" unicode="&#x158;" 
 />
    <glyph glyph-name="upblock" unicode="&#x2580;" 
 />
    <glyph glyph-name="dnblock" unicode="&#x2584;" 
 />
    <glyph glyph-name="block" unicode="&#x2588;" 
 />
    <glyph glyph-name="lfblock" unicode="&#x258c;" 
 />
    <glyph glyph-name="rtblock" unicode="&#x2590;" 
 />
    <glyph glyph-name="ltshade" unicode="&#x2591;" 
 />
    <glyph glyph-name="shade" unicode="&#x2592;" 
 />
    <glyph glyph-name="dkshade" unicode="&#x2593;" 
 />
    <glyph glyph-name="smileface" unicode="&#x263a;" 
 />
    <glyph glyph-name="invsmileface" unicode="&#x263b;" 
 />
    <glyph glyph-name="sun" unicode="&#x263c;" 
 />
    <glyph glyph-name="female" unicode="&#x2640;" 
 />
    <glyph glyph-name="male" unicode="&#x2642;" 
 />
    <glyph glyph-name="spade" unicode="&#x2660;" 
 />
    <glyph glyph-name="club" unicode="&#x2663;" 
 />
    <glyph glyph-name="heart" unicode="&#x2665;" 
 />
    <glyph glyph-name="diamond" unicode="&#x2666;" 
 />
    <glyph glyph-name="musicalnote" unicode="&#x266a;" 
 />
    <glyph glyph-name="musicalnotedbl" unicode="&#x266b;" 
 />
    <glyph glyph-name="Abreve" unicode="&#x102;" 
 />
    <glyph glyph-name="abreve" unicode="&#x103;" 
 />
    <glyph glyph-name="Aogonek" unicode="&#x104;" 
 />
    <glyph glyph-name="aogonek" unicode="&#x105;" 
 />
    <glyph glyph-name="Dcaron" unicode="&#x10e;" 
 />
    <glyph glyph-name="dcaron" unicode="&#x10f;" 
 />
    <glyph glyph-name="Dcroat" unicode="&#x110;" 
 />
    <glyph glyph-name="Eogonek" unicode="&#x118;" 
 />
    <glyph glyph-name="eogonek" unicode="&#x119;" 
 />
    <glyph glyph-name="Ecaron" unicode="&#x11a;" 
 />
    <glyph glyph-name="ecaron" unicode="&#x11b;" 
 />
    <glyph glyph-name="Lacute" unicode="&#x139;" 
 />
    <glyph glyph-name="lacute" unicode="&#x13a;" 
 />
    <glyph glyph-name="Lcaron" unicode="&#x13d;" 
 />
    <glyph glyph-name="lcaron" unicode="&#x13e;" 
 />
    <glyph glyph-name="Nacute" unicode="&#x143;" 
 />
    <glyph glyph-name="nacute" unicode="&#x144;" 
 />
    <glyph glyph-name="Ncaron" unicode="&#x147;" 
 />
    <glyph glyph-name="ncaron" unicode="&#x148;" 
 />
    <glyph glyph-name="Ohungarumlaut" unicode="&#x150;" 
 />
    <glyph glyph-name="ohungarumlaut" unicode="&#x151;" 
 />
    <glyph glyph-name="Racute" unicode="&#x154;" 
 />
    <glyph glyph-name="racute" unicode="&#x155;" 
 />
    <glyph glyph-name="rcaron" unicode="&#x159;" 
 />
    <glyph glyph-name="Sacute" unicode="&#x15a;" 
 />
    <glyph glyph-name="sacute" unicode="&#x15b;" 
 />
    <glyph glyph-name="Tcommaaccent" unicode="&#x162;" 
 />
    <glyph glyph-name="tcommaaccent" unicode="&#x163;" 
 />
    <glyph glyph-name="Tcaron" unicode="&#x164;" 
 />
    <glyph glyph-name="tcaron" unicode="&#x165;" 
 />
    <glyph glyph-name="Uring" unicode="&#x16e;" 
 />
    <glyph glyph-name="uring" unicode="&#x16f;" 
 />
    <glyph glyph-name="uhungarumlaut" unicode="&#x171;" 
 />
    <glyph glyph-name="Uhungarumlaut" unicode="&#x170;" 
 />
    <glyph glyph-name="Zacute" unicode="&#x179;" 
 />
    <glyph glyph-name="zacute" unicode="&#x17a;" 
 />
    <glyph glyph-name="Zdotaccent" unicode="&#x17b;" 
 />
    <glyph glyph-name="zdotaccent" unicode="&#x17c;" 
 />
    <glyph glyph-name="Ldot" unicode="&#x13f;" 
 />
    <glyph glyph-name="ldot" unicode="&#x140;" 
 />
    <glyph glyph-name="SF100000" unicode="&#x2500;" 
 />
    <glyph glyph-name="SF110000" unicode="&#x2502;" 
 />
    <glyph glyph-name="SF010000" unicode="&#x250c;" 
 />
    <glyph glyph-name="SF030000" unicode="&#x2510;" 
 />
    <glyph glyph-name="SF020000" unicode="&#x2514;" 
 />
    <glyph glyph-name="SF040000" unicode="&#x2518;" 
 />
    <glyph glyph-name="SF080000" unicode="&#x251c;" 
 />
    <glyph glyph-name="SF090000" unicode="&#x2524;" 
 />
    <glyph glyph-name="SF060000" unicode="&#x252c;" 
 />
    <glyph glyph-name="SF070000" unicode="&#x2534;" 
 />
    <glyph glyph-name="SF050000" unicode="&#x253c;" 
 />
    <glyph glyph-name="SF430000" unicode="&#x2550;" 
 />
    <glyph glyph-name="SF240000" unicode="&#x2551;" 
 />
    <glyph glyph-name="SF510000" unicode="&#x2552;" 
 />
    <glyph glyph-name="SF520000" unicode="&#x2553;" 
 />
    <glyph glyph-name="SF390000" unicode="&#x2554;" 
 />
    <glyph glyph-name="SF220000" unicode="&#x2555;" 
 />
    <glyph glyph-name="SF210000" unicode="&#x2556;" 
 />
    <glyph glyph-name="SF250000" unicode="&#x2557;" 
 />
    <glyph glyph-name="SF500000" unicode="&#x2558;" 
 />
    <glyph glyph-name="SF490000" unicode="&#x2559;" 
 />
    <glyph glyph-name="SF380000" unicode="&#x255a;" 
 />
    <glyph glyph-name="SF280000" unicode="&#x255b;" 
 />
    <glyph glyph-name="SF270000" unicode="&#x255c;" 
 />
    <glyph glyph-name="SF260000" unicode="&#x255d;" 
 />
    <glyph glyph-name="SF360000" unicode="&#x255e;" 
 />
    <glyph glyph-name="SF370000" unicode="&#x255f;" 
 />
    <glyph glyph-name="SF420000" unicode="&#x2560;" 
 />
    <glyph glyph-name="SF190000" unicode="&#x2561;" 
 />
    <glyph glyph-name="SF200000" unicode="&#x2562;" 
 />
    <glyph glyph-name="SF230000" unicode="&#x2563;" 
 />
    <glyph glyph-name="SF470000" unicode="&#x2564;" 
 />
    <glyph glyph-name="SF480000" unicode="&#x2565;" 
 />
    <glyph glyph-name="SF410000" unicode="&#x2566;" 
 />
    <glyph glyph-name="SF450000" unicode="&#x2567;" 
 />
    <glyph glyph-name="SF460000" unicode="&#x2568;" 
 />
    <glyph glyph-name="SF400000" unicode="&#x2569;" 
 />
    <glyph glyph-name="SF540000" unicode="&#x256a;" 
 />
    <glyph glyph-name="SF530000" unicode="&#x256b;" 
 />
    <glyph glyph-name="SF440000" unicode="&#x256c;" 
 />
  </font>
</defs>
</svg>
